<?xml version="1.0" encoding="utf-8"?>
<!-- Generator: Adobe Illustrator 26.0.3, SVG Export Plug-In . SVG Version: 6.00 Build 0)  -->
<svg version="1.1" id="Layer_1" xmlns="http://www.w3.org/2000/svg" xmlns:xlink="http://www.w3.org/1999/xlink" x="0px" y="0px"
	 viewBox="0 0 32 32" style="enable-background:new 0 0 32 32;" xml:space="preserve">
<style type="text/css">
	.st0{fill:#FF0000;}
</style>
<path class="st0" d="M0,0.1v32h32v-32H0z M6.1,23.4L4.8,21l7.1-4.1l1.4,2.4L6.1,23.4z M11.9,15.3l-7.1-4.1l1.4-2.4l7.1,4.1
	L11.9,15.3z M17.4,28.2h-2.8V20h2.8V28.2z M17.4,12.2h-2.8V3.9h2.8V12.2z M25.9,23.4l-7.1-4.1l1.4-2.4l7.1,4.1L25.9,23.4z
	 M20.1,15.3l-1.4-2.4l7.1-4.1l1.4,2.4L20.1,15.3z"/>
</svg>
