<?xml version="1.0" encoding="utf-8"?>
<!-- Generator: Adobe Illustrator 26.0.3, SVG Export Plug-In . SVG Version: 6.00 Build 0)  -->
<svg version="1.1" id="Layer_1" xmlns="http://www.w3.org/2000/svg" xmlns:xlink="http://www.w3.org/1999/xlink" x="0px" y="0px"
	 viewBox="0 0 36 36" style="enable-background:new 0 0 36 36;" xml:space="preserve">
<style type="text/css">
	.st0{fill:#FF0000;}
</style>
<path class="st0" d="M0,0v36h36V0H0z M6.9,26.2l-1.5-2.7l8-4.6l1.5,2.7L6.9,26.2z M13.4,17.1l-8-4.6l1.5-2.7l8,4.6L13.4,17.1z
	 M19.5,31.7h-3.1v-9.3h3.1V31.7z M19.5,13.6h-3.1V4.3h3.1V13.6z M29.1,26.2l-8-4.6l1.5-2.7l8,4.6L29.1,26.2z M22.6,17.1L21,14.5
	l8-4.6l1.5,2.7L22.6,17.1z"/>
</svg>
