<?xml version="1.0" encoding="utf-8"?>
<!-- Generator: Adobe Illustrator 26.0.3, SVG Export Plug-In . SVG Version: 6.00 Build 0)  -->
<svg version="1.1" id="https:_www.flaticon.com_free-icon_layers_149298"
	 xmlns="http://www.w3.org/2000/svg" xmlns:xlink="http://www.w3.org/1999/xlink" x="0px" y="0px" viewBox="0 0 56 54.3"
	 style="enable-background:new 0 0 56 54.3;" xml:space="preserve">
<style type="text/css">
	.st0{fill:#FF0000;}
</style>
<ellipse id="Ellipse_5" class="st0" cx="45.9" cy="25.6" rx="1" ry="1"/>
<ellipse id="Ellipse_6" class="st0" cx="9.2" cy="25.6" rx="1" ry="1"/>
<ellipse id="Ellipse_7" class="st0" cx="12.2" cy="28.7" rx="1" ry="1"/>
<ellipse id="Ellipse_8" class="st0" cx="18.4" cy="28.7" rx="1" ry="1"/>
<ellipse id="Ellipse_9" class="st0" cx="15.3" cy="31.7" rx="1" ry="1"/>
<ellipse id="Ellipse_10" class="st0" cx="21.4" cy="31.7" rx="1" ry="1"/>
<ellipse id="Ellipse_11" class="st0" cx="24.5" cy="34.8" rx="1" ry="1"/>
<ellipse id="Ellipse_12" class="st0" cx="30.6" cy="34.8" rx="1" ry="1"/>
<ellipse id="Ellipse_13" class="st0" cx="33.6" cy="31.7" rx="1" ry="1"/>
<ellipse id="Ellipse_14" class="st0" cx="27.5" cy="37.9" rx="1" ry="1"/>
<ellipse id="Ellipse_15" class="st0" cx="36.7" cy="28.7" rx="1" ry="1"/>
<ellipse id="Ellipse_16" class="st0" cx="42.8" cy="28.7" rx="1" ry="1"/>
<ellipse id="Ellipse_17" class="st0" cx="39.8" cy="31.7" rx="1" ry="1"/>
<path id="Path_2747" class="st0" d="M46.4,32.6l9.6-5.5l-9.8-5.6l9.8-5.6L28,0L0,15.9l9.8,5.6L0,27.1l9.8,5.6L0,38.3l28,16l28-16
	l-9.8-5.6l0.1,0C46.3,32.7,46.4,32.6,46.4,32.6z M28,2.3l23.9,13.6l-7.8,4.4l0,0L28,29.5L4.1,15.9L28,2.3z M11.3,23
	c0.2,0.5,0.8,0.7,1.3,0.5c0.1,0,0.2-0.1,0.3-0.2l2.3,1.3c-0.6,0-1,0.5-1,1.1c0,0.6,0.5,1,1.1,1c0.5,0,1-0.5,1-1c0-0.2,0-0.3-0.1-0.5
	l10.5,6c-0.1,0.2-0.2,0.4-0.2,0.6c0,0.6,0.5,1,1.1,1c0.5,0,0.9-0.4,1-1c0,0,0-0.1,0-0.1l10.2-5.9c0.1,0.5,0.5,0.9,1,0.9
	c0.6,0,1-0.5,1-1c0-0.3-0.2-0.6-0.4-0.8l2.2-1.3c0.1,0,0.1,0,0.2,0c0.4,0,0.8-0.3,1-0.7l0.3-0.2l7.8,4.4l-2,1.2
	c-0.2-0.5-0.8-0.7-1.3-0.5c-0.4,0.2-0.6,0.5-0.6,0.9c0,0.2,0.1,0.4,0.2,0.6l-4,2.3l0,0l-6.5,3.7c0.1-0.1,0.1-0.3,0.1-0.5
	c0-0.6-0.4-1-1-1c-0.6,0-1,0.4-1,1c0,0.5,0.4,1,1,1l-2.3,1.3c-0.4-0.4-1-0.4-1.4,0c-0.2,0.2-0.3,0.4-0.3,0.7c0,0.1,0,0.2,0,0.2
	L28,40.8l-5.6-3.2c-0.1-0.4-0.5-0.7-1-0.7c-0.1,0-0.1,0-0.2,0L19,35.6c0.3-0.2,0.4-0.5,0.4-0.8c0-0.6-0.5-1-1-1
	c-0.5,0-0.9,0.4-1,0.9L7.1,28.8c0.1-0.5-0.1-1-0.6-1.1c-0.1,0-0.2,0-0.4,0c-0.2,0-0.5,0.1-0.6,0.2l-1.4-0.8L11.3,23z M51.9,38.3
	L28,52L4.1,38.3l7.8-4.4L28,43.1l16.1-9.2L51.9,38.3z"/>
</svg>
