<?xml version="1.0" encoding="utf-8"?>
<!-- Generator: Adobe Illustrator 26.0.3, SVG Export Plug-In . SVG Version: 6.00 Build 0)  -->
<svg version="1.1" id="Layer_1" xmlns="http://www.w3.org/2000/svg" xmlns:xlink="http://www.w3.org/1999/xlink" x="0px" y="0px"
	 viewBox="0 0 56 55.8" style="enable-background:new 0 0 56 55.8;" xml:space="preserve">
<style type="text/css">
	.st0{fill:#FF0000;}
</style>
<path class="st0" d="M0,16.6c0.2-0.3,0.4-0.6,0.6-0.8c3.6-3.2,7.2-6.4,10.8-9.6c0.4-0.3,0.8-0.6,1.2-0.7c2.5-0.9,5-1.8,7.5-2.7
	c1.1-0.4,1.7-0.1,1.8,1.1c0.3,1.7,0.8,3.3,2.2,4.4c3.2,2.6,8.1,1,9.3-3c0.1-0.5,0.3-1,0.3-1.5c0.1-1.1,0.7-1.5,1.8-1.1
	c1.9,0.7,3.7,1.4,5.7,2c1.8,0.6,3.3,1.5,4.7,2.7c3,2.8,6.2,5.5,9.3,8.3c0.9,0.8,0.9,1.3,0,2.3c-2.8,2.8-5.5,5.6-8.3,8.4
	c-0.4,0.4-0.5,0.7-0.5,1.2c0,8,0,15.9,0,23.9c0,0.2,0,0.3,0,0.5c0,0.9-0.4,1.3-1.3,1.3c-2,0-4.1,0-6.1,0c-9.3,0-18.7,0-28,0
	c-1.3,0-1.6-0.3-1.6-1.6c0-8.1,0-16.1,0-24.2c0-0.4-0.1-0.7-0.4-1.1c-2.7-2.7-5.5-5.5-8.2-8.3c-0.3-0.3-0.6-0.7-0.9-1
	C0,17,0,16.8,0,16.6z M46.5,23.4c2.2-2.1,4.5-4.3,6.7-6.5c-0.1-0.1-0.1-0.2-0.2-0.2c-3.3-3-6.7-6-10-9c-0.2-0.1-0.4-0.2-0.6-0.3
	c-2-0.7-4-1.5-6-2.2c-0.2-0.1-0.3-0.1-0.5-0.1c-1,3.7-3.3,6.1-7.1,6.4c-4.7,0.4-7.6-2-8.9-6.4c-2.1,0.8-4.2,1.5-6.3,2.3
	c-0.3,0.1-0.6,0.3-0.8,0.5c-2.3,2-4.6,4.1-6.9,6.2C4.8,15,3.8,16,2.7,16.9c2.3,2.2,4.6,4.4,6.8,6.5c0-1.3,0-2.7,0-4.1
	c0-0.2,0-0.5,0-0.7c0.1-0.7,0.5-1,1.1-1c0.6,0,1,0.4,1,1.1c0,0.2,0,0.4,0,0.7c0,10.3,0,20.6,0,31c0,0.2,0,0.5,0,0.7
	c10.9,0,21.8,0,32.7,0c0-0.3,0-0.5,0-0.7c0-10.4,0-20.7,0-31.1c0-0.2,0-0.4,0-0.7c0.1-0.6,0.6-1,1.1-0.9c0.6,0,1,0.5,1,1.2
	C46.5,20.4,46.5,22,46.5,23.4z"/>
</svg>
