<?xml version="1.0" encoding="utf-8"?>
<!-- Generator: Adobe Illustrator 26.0.3, SVG Export Plug-In . SVG Version: 6.00 Build 0)  -->
<svg version="1.1" id="Layer_1" xmlns="http://www.w3.org/2000/svg" xmlns:xlink="http://www.w3.org/1999/xlink" x="0px" y="0px"
	 viewBox="0 0 59.1 56.1" style="enable-background:new 0 0 59.1 56.1;" xml:space="preserve">
<style type="text/css">
	.st0{fill:#FF0000;}
</style>
<path class="st0" d="M1.5,41.9c0.3-0.7,0.9-1.2,1.5-1.7c2.9-2.1,5.8-4.1,8.7-6.1c0.6-0.4,0.9-0.9,1-1.7c0.5-3.8,1.6-7.5,3.3-10.9
	c2.1-4.3,5.4-7.2,9.8-9c2.3-1,4.8-1.6,7.3-2c0.5-0.1,0.7-0.2,0.8-0.7c0.4-1.7,2.2-2.6,4.1-2.3c1.9,0.3,2.8,1.4,3.1,3.2
	c0,0.2,0.3,0.4,0.5,0.5c2.5,0.9,4.9,2,7.1,3.6c4.6,3.4,7.1,7.9,7.8,13.5c0.3,2.8,0.3,5.6-0.2,8.4c-0.4,2.5-2.3,3.5-4.6,3.3
	c-1.7-0.2-3.4-0.3-5.2-0.5c-0.4,0-0.6,0.1-0.9,0.4c-2.9,3.5-6.4,6.2-10.8,7.7c-3.4,1.2-6.8,1.5-10.4,0.8c-1.5-0.3-2.9-1-4.2-2
	c-3.5-2.6-7.4-3.5-11.6-3.6c-1.6,0-3.2,0.1-4.7,0.9c-0.8,0.4-1.8,0.1-2.2-0.7c-0.1-0.1-0.1-0.2-0.2-0.4C1.5,42.4,1.5,42.1,1.5,41.9z
	 M40.3,37.2c0.1-0.2,0.1-0.3,0.1-0.4c0.9-3.2,1.5-6.5,1.8-9.8c0.2-2.9,0.2-5.7-0.5-8.5c-0.7-2.5-1.9-4.7-4.1-6.2
	c-0.3-0.2-0.7-0.2-0.9-0.2c-3.6,0.8-6.3,2.9-8.4,5.8c-2.1,2.8-3.4,6.1-4.3,9.5c-0.5,1.8-0.8,3.7-1.1,5.5c0,0.2,0,0.4,0.3,0.5
	c3.9,0.9,7.7,1.8,11.6,2.7C36.5,36.6,38.4,36.9,40.3,37.2z M43.7,39.4c-0.2,0-0.3,0-0.4-0.1c-2.6-0.4-5.3-0.7-7.9-1.2
	c-3.9-0.8-7.7-1.8-11.6-2.7c-3.1-0.7-6.3-1.1-9.5-0.7c-0.2,0-0.5,0.1-0.7,0.2c-2.6,1.8-5.1,3.6-7.7,5.3c-0.6,0.4-1.1,0.8-1.6,1.2
	c0.5,0,0.8-0.2,1.3-0.2c3.7-0.7,7.3-0.2,10.9,0.9c2,0.6,3.7,1.8,5.4,3c1.6,1.1,3.4,1.6,5.3,1.7c4.4,0.1,8.4-1.1,12.1-3.5
	C40.8,42.3,42.3,41,43.7,39.4z M42.3,37.4c0.3,0,0.5,0.1,0.7,0.1c1,0.1,2,0.1,3,0.2c2,0.2,4.1,0.4,6.1,0.5c1.5,0.1,2.1-0.5,2.4-2
	c0.4-2.3,0.4-4.7,0.2-7.1c-0.4-4.1-1.8-7.7-4.7-10.7c-1.9-2-4.2-3.5-6.8-4.6c-0.7-0.3-1.3-0.5-2-0.8c1.3,1.8,2,3.8,2.4,5.8
	c0.9,4.2,0.6,8.5-0.2,12.7C43.2,33.5,42.7,35.4,42.3,37.4z M20.8,33c0.6-2.5,1.1-5.1,1.9-7.6c1.2-4,3-7.7,6-10.7
	c0.6-0.6,1.2-1.1,1.8-1.7c-0.9,0.2-1.8,0.4-2.7,0.7c-3,1-5.7,2.5-7.7,4.9c-3.5,4.1-4.7,9.1-5.6,14.2C16.7,32.9,18.8,33,20.8,33z
	 M39.1,10.3c-0.2-0.6-0.8-1-1.8-1c-0.8,0-1.4,0.3-1.5,0.8C36.9,10.2,38,10.2,39.1,10.3z"/>
</svg>
